<mxfile host="Electron" agent="Mozilla/5.0 (Windows NT 10.0; Win64; x64) AppleWebKit/537.36 (KHTML, like Gecko) draw.io/24.7.17 Chrome/128.0.6613.36 Electron/32.0.1 Safari/537.36" version="24.7.17">
  <diagram name="Сторінка-1" id="WvRGx9iXR80kTRe6y9e3">
    <mxGraphModel dx="954" dy="657" grid="1" gridSize="10" guides="1" tooltips="1" connect="1" arrows="1" fold="1" page="1" pageScale="1" pageWidth="827" pageHeight="1169" math="0" shadow="0">
      <root>
        <mxCell id="0" />
        <mxCell id="1" parent="0" />
        <mxCell id="XvMdMyvMiwlwaOCzOsSV-3" value="" style="edgeStyle=orthogonalEdgeStyle;rounded=0;orthogonalLoop=1;jettySize=auto;html=1;" parent="1" source="XvMdMyvMiwlwaOCzOsSV-1" target="XvMdMyvMiwlwaOCzOsSV-2" edge="1">
          <mxGeometry relative="1" as="geometry" />
        </mxCell>
        <mxCell id="XvMdMyvMiwlwaOCzOsSV-1" value="&lt;font style=&quot;font-size: 20px;&quot;&gt;start&lt;/font&gt;" style="ellipse;whiteSpace=wrap;html=1;" parent="1" vertex="1">
          <mxGeometry x="350" y="50" width="120" height="80" as="geometry" />
        </mxCell>
        <mxCell id="XvMdMyvMiwlwaOCzOsSV-5" value="" style="edgeStyle=orthogonalEdgeStyle;rounded=0;orthogonalLoop=1;jettySize=auto;html=1;" parent="1" source="XvMdMyvMiwlwaOCzOsSV-2" target="XvMdMyvMiwlwaOCzOsSV-4" edge="1">
          <mxGeometry relative="1" as="geometry" />
        </mxCell>
        <mxCell id="XvMdMyvMiwlwaOCzOsSV-2" value="&lt;font style=&quot;font-size: 20px;&quot;&gt;int n,m&lt;/font&gt;" style="whiteSpace=wrap;html=1;" parent="1" vertex="1">
          <mxGeometry x="350" y="220" width="120" height="60" as="geometry" />
        </mxCell>
        <mxCell id="XvMdMyvMiwlwaOCzOsSV-7" value="" style="edgeStyle=orthogonalEdgeStyle;rounded=0;orthogonalLoop=1;jettySize=auto;html=1;" parent="1" source="XvMdMyvMiwlwaOCzOsSV-4" target="XvMdMyvMiwlwaOCzOsSV-6" edge="1">
          <mxGeometry relative="1" as="geometry" />
        </mxCell>
        <mxCell id="XvMdMyvMiwlwaOCzOsSV-4" value="&lt;font style=&quot;font-size: 20px;&quot;&gt;cin &amp;gt;&amp;gt; n &amp;gt;&amp;gt; m&lt;/font&gt;" style="shape=parallelogram;perimeter=parallelogramPerimeter;whiteSpace=wrap;html=1;fixedSize=1;" parent="1" vertex="1">
          <mxGeometry x="325" y="350" width="170" height="60" as="geometry" />
        </mxCell>
        <mxCell id="XvMdMyvMiwlwaOCzOsSV-9" value="" style="edgeStyle=orthogonalEdgeStyle;rounded=0;orthogonalLoop=1;jettySize=auto;html=1;" parent="1" source="XvMdMyvMiwlwaOCzOsSV-6" target="XvMdMyvMiwlwaOCzOsSV-8" edge="1">
          <mxGeometry relative="1" as="geometry" />
        </mxCell>
        <mxCell id="XvMdMyvMiwlwaOCzOsSV-14" value="" style="edgeStyle=orthogonalEdgeStyle;rounded=0;orthogonalLoop=1;jettySize=auto;html=1;" parent="1" source="XvMdMyvMiwlwaOCzOsSV-6" target="XvMdMyvMiwlwaOCzOsSV-13" edge="1">
          <mxGeometry relative="1" as="geometry" />
        </mxCell>
        <mxCell id="XvMdMyvMiwlwaOCzOsSV-6" value="&lt;font style=&quot;font-size: 20px;&quot;&gt;n&amp;gt;0 &amp;amp;&amp;amp; m&amp;gt;0&lt;/font&gt;" style="rhombus;whiteSpace=wrap;html=1;" parent="1" vertex="1">
          <mxGeometry x="330" y="480" width="160" height="80" as="geometry" />
        </mxCell>
        <mxCell id="XvMdMyvMiwlwaOCzOsSV-11" value="" style="edgeStyle=orthogonalEdgeStyle;rounded=0;orthogonalLoop=1;jettySize=auto;html=1;" parent="1" source="XvMdMyvMiwlwaOCzOsSV-8" target="XvMdMyvMiwlwaOCzOsSV-10" edge="1">
          <mxGeometry relative="1" as="geometry" />
        </mxCell>
        <mxCell id="XvMdMyvMiwlwaOCzOsSV-8" value="&lt;font style=&quot;font-size: 20px;&quot;&gt;m-=n&lt;/font&gt;" style="whiteSpace=wrap;html=1;" parent="1" vertex="1">
          <mxGeometry x="350" y="650" width="120" height="60" as="geometry" />
        </mxCell>
        <mxCell id="XvMdMyvMiwlwaOCzOsSV-12" style="edgeStyle=orthogonalEdgeStyle;rounded=0;orthogonalLoop=1;jettySize=auto;html=1;exitX=0;exitY=0.5;exitDx=0;exitDy=0;" parent="1" source="XvMdMyvMiwlwaOCzOsSV-10" edge="1">
          <mxGeometry relative="1" as="geometry">
            <mxPoint x="410" y="450" as="targetPoint" />
            <Array as="points">
              <mxPoint x="280" y="820" />
              <mxPoint x="280" y="450" />
            </Array>
          </mxGeometry>
        </mxCell>
        <mxCell id="XvMdMyvMiwlwaOCzOsSV-10" value="&lt;font style=&quot;font-size: 20px;&quot;&gt;n--&lt;/font&gt;" style="whiteSpace=wrap;html=1;" parent="1" vertex="1">
          <mxGeometry x="350" y="790" width="120" height="60" as="geometry" />
        </mxCell>
        <mxCell id="XvMdMyvMiwlwaOCzOsSV-18" value="" style="edgeStyle=orthogonalEdgeStyle;rounded=0;orthogonalLoop=1;jettySize=auto;html=1;" parent="1" source="XvMdMyvMiwlwaOCzOsSV-13" target="XvMdMyvMiwlwaOCzOsSV-17" edge="1">
          <mxGeometry relative="1" as="geometry" />
        </mxCell>
        <mxCell id="XvMdMyvMiwlwaOCzOsSV-21" value="" style="edgeStyle=orthogonalEdgeStyle;rounded=0;orthogonalLoop=1;jettySize=auto;html=1;" parent="1" source="XvMdMyvMiwlwaOCzOsSV-13" target="XvMdMyvMiwlwaOCzOsSV-20" edge="1">
          <mxGeometry relative="1" as="geometry" />
        </mxCell>
        <mxCell id="XvMdMyvMiwlwaOCzOsSV-13" value="&lt;font style=&quot;font-size: 20px;&quot;&gt;m&amp;gt;0&lt;/font&gt;" style="rhombus;whiteSpace=wrap;html=1;" parent="1" vertex="1">
          <mxGeometry x="664" y="590" width="110" height="80" as="geometry" />
        </mxCell>
        <mxCell id="XvMdMyvMiwlwaOCzOsSV-26" style="edgeStyle=orthogonalEdgeStyle;rounded=0;orthogonalLoop=1;jettySize=auto;html=1;exitX=0.5;exitY=1;exitDx=0;exitDy=0;" parent="1" source="XvMdMyvMiwlwaOCzOsSV-17" target="XvMdMyvMiwlwaOCzOsSV-30" edge="1">
          <mxGeometry relative="1" as="geometry">
            <mxPoint x="1040" y="1510" as="targetPoint" />
            <Array as="points">
              <mxPoint x="719" y="1193" />
              <mxPoint x="1040" y="1193" />
              <mxPoint x="1040" y="1510" />
            </Array>
          </mxGeometry>
        </mxCell>
        <mxCell id="XvMdMyvMiwlwaOCzOsSV-17" value="&lt;font style=&quot;font-size: 20px;&quot;&gt;&amp;nbsp;&lt;span style=&quot;font-family: Consolas, &amp;quot;Courier New&amp;quot;, monospace; white-space: pre;&quot;&gt;cout&lt;/span&gt;&lt;span style=&quot;font-family: Consolas, &amp;quot;Courier New&amp;quot;, monospace; white-space: pre;&quot;&gt; &lt;/span&gt;&lt;span style=&quot;font-family: Consolas, &amp;quot;Courier New&amp;quot;, monospace; white-space: pre;&quot;&gt;&amp;lt;&amp;lt;&lt;/span&gt;&lt;span style=&quot;font-family: Consolas, &amp;quot;Courier New&amp;quot;, monospace; white-space: pre;&quot;&gt; &lt;/span&gt;&lt;span style=&quot;font-family: Consolas, &amp;quot;Courier New&amp;quot;, monospace; white-space: pre;&quot;&gt;&quot;Special military &lt;/span&gt;&lt;/font&gt;&lt;div&gt;&lt;font style=&quot;font-size: 20px;&quot;&gt;&lt;span style=&quot;font-family: Consolas, &amp;quot;Courier New&amp;quot;, monospace; white-space: pre;&quot;&gt;operation completely failed!&quot;&lt;/span&gt;&lt;/font&gt;&lt;/div&gt;" style="shape=parallelogram;perimeter=parallelogramPerimeter;whiteSpace=wrap;html=1;fixedSize=1;" parent="1" vertex="1">
          <mxGeometry x="541" y="775" width="355" height="110" as="geometry" />
        </mxCell>
        <mxCell id="XvMdMyvMiwlwaOCzOsSV-23" value="" style="edgeStyle=orthogonalEdgeStyle;rounded=0;orthogonalLoop=1;jettySize=auto;html=1;exitX=0;exitY=0.5;exitDx=0;exitDy=0;" parent="1" source="XvMdMyvMiwlwaOCzOsSV-20" target="XvMdMyvMiwlwaOCzOsSV-22" edge="1">
          <mxGeometry relative="1" as="geometry" />
        </mxCell>
        <mxCell id="XvMdMyvMiwlwaOCzOsSV-25" style="edgeStyle=orthogonalEdgeStyle;rounded=0;orthogonalLoop=1;jettySize=auto;html=1;exitX=1;exitY=0.5;exitDx=0;exitDy=0;entryX=0.5;entryY=0;entryDx=0;entryDy=0;" parent="1" source="XvMdMyvMiwlwaOCzOsSV-20" target="XvMdMyvMiwlwaOCzOsSV-24" edge="1">
          <mxGeometry relative="1" as="geometry" />
        </mxCell>
        <mxCell id="XvMdMyvMiwlwaOCzOsSV-20" value="&lt;font style=&quot;font-size: 20px;&quot;&gt;n&amp;gt;0&lt;/font&gt;" style="rhombus;whiteSpace=wrap;html=1;" parent="1" vertex="1">
          <mxGeometry x="1110" y="730" width="110" height="80" as="geometry" />
        </mxCell>
        <mxCell id="XvMdMyvMiwlwaOCzOsSV-27" style="edgeStyle=orthogonalEdgeStyle;rounded=0;orthogonalLoop=1;jettySize=auto;html=1;" parent="1" source="XvMdMyvMiwlwaOCzOsSV-22" edge="1">
          <mxGeometry relative="1" as="geometry">
            <mxPoint x="1035" y="1190" as="targetPoint" />
          </mxGeometry>
        </mxCell>
        <mxCell id="XvMdMyvMiwlwaOCzOsSV-22" value="&lt;div style=&quot;font-family: Consolas, &amp;quot;Courier New&amp;quot;, monospace; font-size: 20px; line-height: 19px; white-space: pre;&quot;&gt;cout &amp;lt;&amp;lt; &quot;BNR will finally be free!&quot;&lt;/div&gt;" style="shape=parallelogram;perimeter=parallelogramPerimeter;whiteSpace=wrap;html=1;fixedSize=1;" parent="1" vertex="1">
          <mxGeometry x="825" y="946" width="420" height="60" as="geometry" />
        </mxCell>
        <mxCell id="XvMdMyvMiwlwaOCzOsSV-28" style="edgeStyle=orthogonalEdgeStyle;rounded=0;orthogonalLoop=1;jettySize=auto;html=1;exitX=0.5;exitY=1;exitDx=0;exitDy=0;" parent="1" source="XvMdMyvMiwlwaOCzOsSV-24" edge="1">
          <mxGeometry relative="1" as="geometry">
            <mxPoint x="1040" y="1270" as="targetPoint" />
            <Array as="points">
              <mxPoint x="1406" y="1270" />
            </Array>
          </mxGeometry>
        </mxCell>
        <mxCell id="XvMdMyvMiwlwaOCzOsSV-24" value="&lt;div style=&quot;font-family: Consolas, &amp;quot;Courier New&amp;quot;, monospace; line-height: 19px; white-space: pre;&quot;&gt;&lt;div style=&quot;line-height: 19px;&quot;&gt;&lt;font style=&quot;font-size: 20px;&quot;&gt;&amp;nbsp;cout &amp;lt;&amp;lt; &quot;Best possible scenario!&quot;&lt;/font&gt;&lt;/div&gt;&lt;/div&gt;" style="shape=parallelogram;perimeter=parallelogramPerimeter;whiteSpace=wrap;html=1;fixedSize=1;" parent="1" vertex="1">
          <mxGeometry x="1191" y="870" width="430" height="60" as="geometry" />
        </mxCell>
        <mxCell id="XvMdMyvMiwlwaOCzOsSV-30" value="&lt;font style=&quot;font-size: 20px;&quot;&gt;end&lt;/font&gt;" style="ellipse;whiteSpace=wrap;html=1;" parent="1" vertex="1">
          <mxGeometry x="980" y="1470" width="120" height="80" as="geometry" />
        </mxCell>
        <mxCell id="cRUDAcSMgXAiHpkDbyTA-1" value="yes" style="text;html=1;align=center;verticalAlign=middle;resizable=0;points=[];autosize=1;strokeColor=none;fillColor=none;" vertex="1" parent="1">
          <mxGeometry x="410" y="588" width="40" height="30" as="geometry" />
        </mxCell>
        <mxCell id="cRUDAcSMgXAiHpkDbyTA-2" value="no" style="text;html=1;align=center;verticalAlign=middle;resizable=0;points=[];autosize=1;strokeColor=none;fillColor=none;" vertex="1" parent="1">
          <mxGeometry x="500" y="478" width="40" height="30" as="geometry" />
        </mxCell>
        <mxCell id="cRUDAcSMgXAiHpkDbyTA-3" value="yes" style="text;html=1;align=center;verticalAlign=middle;resizable=0;points=[];autosize=1;strokeColor=none;fillColor=none;" vertex="1" parent="1">
          <mxGeometry x="660" y="688" width="40" height="30" as="geometry" />
        </mxCell>
        <mxCell id="cRUDAcSMgXAiHpkDbyTA-4" value="no" style="text;html=1;align=center;verticalAlign=middle;resizable=0;points=[];autosize=1;strokeColor=none;fillColor=none;" vertex="1" parent="1">
          <mxGeometry x="850" y="578" width="40" height="30" as="geometry" />
        </mxCell>
        <mxCell id="cRUDAcSMgXAiHpkDbyTA-5" value="yes" style="text;html=1;align=center;verticalAlign=middle;resizable=0;points=[];autosize=1;strokeColor=none;fillColor=none;" vertex="1" parent="1">
          <mxGeometry x="1030" y="738" width="40" height="30" as="geometry" />
        </mxCell>
        <mxCell id="cRUDAcSMgXAiHpkDbyTA-6" value="no" style="text;html=1;align=center;verticalAlign=middle;resizable=0;points=[];autosize=1;strokeColor=none;fillColor=none;" vertex="1" parent="1">
          <mxGeometry x="1320" y="738" width="40" height="30" as="geometry" />
        </mxCell>
      </root>
    </mxGraphModel>
  </diagram>
</mxfile>
